<svg xmlns="http://www.w3.org/2000/svg" xmlns:xlink="http://www.w3.org/1999/xlink" width="374" height="519" version="1.1" viewBox="0 0 374 519"><title>Group 47</title><desc>Created with Sketch.</desc><defs><polygon id="path-1" points=".024 0 203.543 0 203.543 202.724 .024 202.724"/></defs><g id="Page-1" fill="none" fill-rule="evenodd" stroke="none" stroke-width="1"><g id="Group-47" transform="translate(-20.000000, 0.000000)"><g id="Group-52" fill-rule="nonzero" transform="translate(271.099689, 153.117539) rotate(10.000000) translate(-271.099689, -153.117539) translate(203.099689, 105.117539)"><g id="email"><path id="Shape" fill="#2079D4" d="M131.17016,0.210607711 L4.20647115,0.210607711 C1.93859383,0.210607711 0.021729367,2.00679062 0.000334297954,4.27433364 C0.000111432652,4.28525404 22.5628275,24.7012758 67.6884826,65.522399 L135.376965,4.32314114 C135.354901,2.00679062 133.438037,0.210607711 131.17016,0.210607711 Z"/><path id="Shape" fill="#66A5E3" d="M70.1096355,52.8625355 C68.6724886,53.9316203 66.7041422,53.9316203 65.2669953,52.8625355 L60.4303725,49.2654895 C44.6409017,54.8117311 33.5986771,60.1902435 27.3036989,65.4010266 C21.0087207,70.6118097 13.6026012,80.5042507 5.08534048,95.0783497 L130.291625,95.0783497 C122.859968,79.9191222 116.076483,69.8002158 109.941172,64.7216304 C103.80586,59.6430451 92.1408892,54.4909981 74.9462583,49.2654895 L70.1096355,52.8625355 Z"/><path id="Shape" fill="#8EBEED" d="M0.000668595908,4.32347544 L0,4.32314114 L0,89.9930092 C0,92.8014463 2.27690336,95.0783497 5.08534048,95.0783497 L60.4303725,49.2654895 L0.000668595908,4.32347544 Z"/><path id="Shape" fill="#8EBEED" d="M74.9462583,49.2654895 L130.291625,95.0783497 C133.100062,95.0783497 135.376965,92.8014463 135.376965,89.9930092 L135.376965,4.32314114 L74.9462583,49.2654895 Z"/></g></g><g id="Group-51" transform="translate(162.343206, 350.400419) rotate(-10.000000) translate(-162.343206, -350.400419) translate(26.343206, 190.400419)"><g id="Group-3-Copy" transform="translate(67.980092, 116.128682)"><mask id="mask-2" fill="#fff"><use xlink:href="#path-1"/></mask><path id="Fill-1" fill="#66A5E3" d="M200.362376,202.747642 L3.18035517,202.747642 C1.42400403,202.747642 0,201.323638 0,199.567287 L0,75.5334353 L99.8631524,0.636071034 C100.993769,-0.211891163 102.548962,-0.211891163 103.679579,0.636071034 L203.542731,75.5334353 L203.542731,199.567287 C203.542731,201.323638 202.118727,202.747642 200.362376,202.747642" mask="url(#mask-2)"/></g><g id="Group-50" transform="translate(0.132311, 0.145152)"><path id="Fill-3" fill="#E6E9F2" d="M188.443597,133.395866 C188.443597,145.402402 178.710627,155.134917 166.704547,155.134917 L20.0279604,155.134917 C20.0844918,155.106651 38.9682515,155.106651 38.9919582,135.866379 L38.9682515,21.1604291 C38.9682515,10.1003385 47.9339457,1.13510022 58.9935804,1.13510022 L188.443597,1.13510022 L188.443597,133.395866 Z"/><path id="Fill-4" fill="#FFF" d="M39.4282528,103.235008 L39.4282528,135.863643 C39.4282528,148.409342 30.7561571,155.134917 20.1569796,155.134917 L19.8989412,155.134917 C9.29976373,155.134917 0.627667989,146.462821 0.627667989,135.863643 L0.627667989,108.528898 C0.628123887,105.605223 2.99833868,103.235008 5.9211021,103.235008 L39.4282528,103.235008 Z" opacity=".4"/><path id="Fill-5" fill="#F7F9FA" d="M83.9382145,317.26953 L260.301792,317.26953 L260.301792,26.4835457 C260.301792,12.0933793 248.528413,0.32000067 234.138247,0.32000067 C233.516086,0.32000067 233.256079,0.33238197 232.995453,0.339810751 L60.9715213,0.318143475 C61.1101918,0.395526603 83.9382145,4.37982909 83.9382145,26.4829267 L83.9382145,317.26953 Z"/><path id="Fill-8" fill="#D0BDAA" d="M233.777951,0.32495319 C233.514229,0.32495319 233.256698,0.336784691 232.992976,0.34241874 L232.992976,0.32495319 L233.777951,0.32495319"/><path id="Fill-26" fill="#D0BDAA" d="M233.777951,0.31876254 C233.514229,0.31876254 233.256698,0.330594041 232.992976,0.336228089 L232.992976,0.31876254 L233.777951,0.31876254"/><text id="NEWS" fill="#00264D" font-family="TitilliumWeb-Bold, Titillium Web" font-size="39.798" font-weight="bold"><tspan x="113.698" y="64.503">NEWS</tspan></text><path id="Line-3" stroke="#06C" stroke-linecap="square" stroke-width="5.427" d="M116.287874,90.374238 L230.573716,90.374238"/><path id="Line-3-Copy" stroke="#06C" stroke-linecap="square" stroke-width="5.427" d="M116.287874,110.088622 L230.573716,110.088622"/><path id="Line-3-Copy-2" stroke="#06C" stroke-linecap="square" stroke-width="5.427" d="M116.287874,129.803007 L230.573716,129.803007"/><path id="Line-3-Copy-3" stroke="#06C" stroke-linecap="square" stroke-width="5.427" d="M190.575677,152.899805 L231.124436,152.899805"/><path id="Line-3-Copy-4" stroke="#06C" stroke-linecap="square" stroke-width="5.427" d="M190.575677,172.61419 L231.124436,172.61419"/><path id="Line-3-Copy-5" stroke="#06C" stroke-linecap="square" stroke-width="5.427" d="M190.575677,192.328574 L231.124436,192.328574"/><rect id="Rectangle-17" width="51.527" height="39.765" x="116.411" y="153.255" stroke="#06C" stroke-width="5.427"/></g><g id="Group-11-Copy" transform="translate(67.980092, 191.662117)"><path id="Fill-8" fill="#8EBEED" d="M0,0 L0,124.033852 C0,125.790203 1.42400403,127.214207 3.18035517,127.214207 L200.362376,127.214207 C201.130034,127.214207 201.833688,126.942287 202.383094,126.489483 L0,0"/><path id="Fill-10" fill="#3787D6" d="M1.159637,126.489483 C1.70904336,126.942287 2.41269694,127.214207 3.18035517,127.214207 L200.362376,127.214207 C202.118727,127.214207 203.542731,125.790203 203.542731,124.033852 L203.542731,0 L1.159637,126.489483"/></g></g><g id="Group-23" transform="translate(347.000000, 120.494291) rotate(10.000000) translate(-347.000000, -120.494291) translate(325.000000, 98.494291)"><circle id="Oval-7" cx="21.797" cy="22.085" r="21.797" fill="#00264D"/><path id="2" fill="#FFF" stroke="#FFF" d="M27.2481632,30.7397615 L16.3463146,30.7397615 L16.3463146,29.0605668 L21.3322311,23.8163126 C22.1933609,22.9207376 22.8219763,22.2404552 23.218096,21.7754451 C23.6142157,21.3104351 23.9715792,20.7593203 24.2901972,20.1220842 C24.6088152,19.4848482 24.7681218,18.8476217 24.7681218,18.2103856 C24.7681218,17.1081395 24.4667309,16.3331343 23.8639401,15.8853468 C23.2611492,15.4375593 22.3225318,15.2136689 21.0480597,15.2136689 C19.928591,15.2136689 18.6799715,15.3600588 17.3021639,15.6528429 L16.630486,15.7820118 L16.4754834,14.1286508 C18.11163,13.6636407 19.7994191,13.4311392 21.5389013,13.4311392 C23.2783834,13.4311392 24.5915867,13.7971138 25.4785504,14.5290742 C26.3655141,15.2610345 26.8089892,16.4192367 26.8089892,18.0037155 C26.8089892,19.2092972 26.542043,20.2598598 26.0081425,21.1554348 C25.4742421,22.0510098 24.552847,23.1274059 23.2439297,24.3846554 L18.6971872,29.0088992 L27.2481632,29.0088992 L27.2481632,30.7397615 Z"/></g><g id="Group-29" stroke="#0073E6" stroke-linecap="round" stroke-linejoin="round" stroke-width="5.427" transform="translate(364.160460, 391.193748) rotate(-10.000000) translate(-364.160460, -391.193748) translate(332.160460, 370.193748)"><path id="Line-3" d="M0.313118462,2.70717338 L62.2583862,2.70717338"/><path id="Line-3-Copy" d="M2.75167765,21.9484039 L52.5977454,21.9484039"/><path id="Line-3-Copy-2" d="M3.22062132,40.842338 L31.8201439,40.842338"/></g><g id="Group-29-Copy" stroke="#FFF" stroke-linecap="round" stroke-linejoin="round" stroke-width="5" opacity=".2" transform="translate(162.323056, 125.957512) scale(-1, 1) rotate(-10.000000) translate(-162.323056, -125.957512) translate(131.823056, 107.957512)"><path id="Line-3" d="M1.07216662,1.83907134 L41.4154739,1.83907134"/><path id="Line-3-Copy" d="M1.79209455,19.2944124 L60.0037114,19.2944124"/><path id="Line-3-Copy-2" d="M1.57656058,34.553953 L20.2026699,34.553953"/></g><circle id="Oval-8" cx="111" cy="32.252" r="4.5" stroke="#65DDE0" stroke-width="3"/><polygon id="Oval-8-Copy" stroke="#65DDE0" stroke-width="3" points="370.486 223.245 372.486 221.245 370.486 219.245 368.486 221.245"/><g id="Group-46" stroke="#0073E6" stroke-linecap="round" stroke-linejoin="round" stroke-width="3" transform="translate(127.628492, 63.018974) rotate(10.000000) translate(-127.628492, -63.018974) translate(123.128492, 58.518974)"><path id="Line-6" d="M0.409090909,0.409090909 L8.69255048,8.69255048"/><path id="Line-6" d="M0.409090909,0.409090909 L8.69255048,8.69255048" transform="translate(4.500000, 4.500000) scale(-1, 1) translate(-4.500000, -4.500000)"/></g><g id="Group-46-Copy" stroke="#F7F9FA" stroke-linecap="round" stroke-linejoin="round" stroke-width="3" transform="translate(382.000000, 279.238480) rotate(12.000000) translate(-382.000000, -279.238480) translate(378.500000, 275.738480)"><path id="Line-6" d="M0.317824287,0.317824287 L6.75327561,6.75327561"/><path id="Line-6" d="M0.317824287,0.317824287 L6.75327561,6.75327561" transform="translate(3.496067, 3.496067) scale(-1, 1) translate(-3.496067, -3.496067)"/></g><circle id="Oval-9" cx="354.798" cy="263.688" r="4.798" fill="#004080"/><circle id="Oval-9-Copy" cx="175.743" cy="4.738" r="4.654" fill="#004080"/></g></g></svg>